{
	"asset":{
		"generator":"Khronos glTF Blender I/O v4.5.48",
		"version":"2.0"
	},
	"extensionsUsed":[
		"KHR_materials_unlit"
	],
	"scene":0,
	"scenes":[
		{
			"name":"Scene",
			"nodes":[
				0,
				1,
				2,
				3,
				4,
				5,
				6
			]
		}
	],
	"nodes":[
		{
			"mesh":0,
			"name":"collision"
		},
		{
			"name":"_player"
		},
		{
			"mesh":1,
			"name":"crate"
		},
		{
			"mesh":2,
			"name":"rust"
		},
		{
			"mesh":3,
			"name":"bottomless-pit"
		},
		{
			"mesh":4,
			"name":"concrete"
		},
		{
			"mesh":5,
			"name":"grate"
		}
	],
	"materials":[
		{
			"extensions":{
				"KHR_materials_unlit":{}
			},
			"name":"crate",
			"pbrMetallicRoughness":{
				"baseColorTexture":{
					"index":0
				},
				"metallicFactor":0,
				"roughnessFactor":0.9
			}
		},
		{
			"doubleSided":true,
			"extensions":{
				"KHR_materials_unlit":{}
			},
			"name":"rust",
			"pbrMetallicRoughness":{
				"baseColorTexture":{
					"index":1
				},
				"metallicFactor":0,
				"roughnessFactor":0.9
			}
		},
		{
			"doubleSided":true,
			"extensions":{
				"KHR_materials_unlit":{}
			},
			"name":"bottomless-pit",
			"pbrMetallicRoughness":{
				"baseColorTexture":{
					"index":2
				},
				"metallicFactor":0,
				"roughnessFactor":0.9
			}
		},
		{
			"extensions":{
				"KHR_materials_unlit":{}
			},
			"name":"concrete",
			"pbrMetallicRoughness":{
				"baseColorTexture":{
					"index":3
				},
				"metallicFactor":0,
				"roughnessFactor":0.9
			}
		},
		{
			"doubleSided":true,
			"extensions":{
				"KHR_materials_unlit":{}
			},
			"name":"grate",
			"pbrMetallicRoughness":{
				"baseColorTexture":{
					"index":4
				},
				"metallicFactor":0,
				"roughnessFactor":0.9
			}
		}
	],
	"meshes":[
		{
			"name":"collision",
			"primitives":[
				{
					"attributes":{
						"POSITION":0,
						"NORMAL":1
					},
					"indices":2
				}
			]
		},
		{
			"name":"crate.001",
			"primitives":[
				{
					"attributes":{
						"POSITION":3,
						"NORMAL":4,
						"TEXCOORD_0":5
					},
					"indices":6,
					"material":0
				}
			]
		},
		{
			"name":"Cube.002",
			"primitives":[
				{
					"attributes":{
						"POSITION":7,
						"NORMAL":8,
						"TEXCOORD_0":9
					},
					"indices":10,
					"material":1
				}
			]
		},
		{
			"name":"warehouse.004",
			"primitives":[
				{
					"attributes":{
						"POSITION":11,
						"NORMAL":12,
						"TEXCOORD_0":13
					},
					"indices":14,
					"material":2
				}
			]
		},
		{
			"name":"warehouse.005",
			"primitives":[
				{
					"attributes":{
						"POSITION":15,
						"NORMAL":16,
						"TEXCOORD_0":17
					},
					"indices":18,
					"material":3
				}
			]
		},
		{
			"name":"warehouse.006",
			"primitives":[
				{
					"attributes":{
						"POSITION":19,
						"NORMAL":20,
						"TEXCOORD_0":21
					},
					"indices":22,
					"material":4
				}
			]
		}
	],
	"textures":[
		{
			"sampler":0,
			"source":0
		},
		{
			"sampler":0,
			"source":1
		},
		{
			"sampler":1,
			"source":2
		},
		{
			"sampler":0,
			"source":3
		},
		{
			"sampler":1,
			"source":4
		}
	],
	"images":[
		{
			"mimeType":"image/png",
			"name":"crate.png",
			"uri":"crate.png"
		},
		{
			"mimeType":"image/png",
			"name":"rust.png",
			"uri":"rust.png"
		},
		{
			"mimeType":"image/png",
			"name":"concrete-fade.png",
			"uri":"concrete-fade.png"
		},
		{
			"mimeType":"image/png",
			"name":"concrete.png",
			"uri":"concrete.png"
		},
		{
			"mimeType":"image/png",
			"name":"grate.png",
			"uri":"grate.png"
		}
	],
	"accessors":[
		{
			"bufferView":0,
			"componentType":5126,
			"count":16,
			"max":[
				389.7203369140625,
				0,
				633.7057495117188
			],
			"min":[
				-313.4442443847656,
				0,
				-11.233756065368652
			],
			"type":"VEC3"
		},
		{
			"bufferView":1,
			"componentType":5126,
			"count":16,
			"type":"VEC3"
		},
		{
			"bufferView":2,
			"componentType":5123,
			"count":42,
			"type":"SCALAR"
		},
		{
			"bufferView":3,
			"componentType":5126,
			"count":42,
			"max":[
				393.9545593261719,
				80,
				215.5602264404297
			],
			"min":[
				344.0385437011719,
				0,
				125.65971374511719
			],
			"type":"VEC3"
		},
		{
			"bufferView":4,
			"componentType":5126,
			"count":42,
			"type":"VEC3"
		},
		{
			"bufferView":5,
			"componentType":5126,
			"count":42,
			"type":"VEC2"
		},
		{
			"bufferView":6,
			"componentType":5123,
			"count":108,
			"type":"SCALAR"
		},
		{
			"bufferView":7,
			"componentType":5126,
			"count":336,
			"max":[
				83.514892578125,
				53.73430633544922,
				647.4766235351562
			],
			"min":[
				70.41070556640625,
				-6.779232025146484,
				368
			],
			"type":"VEC3"
		},
		{
			"bufferView":8,
			"componentType":5126,
			"count":336,
			"type":"VEC3"
		},
		{
			"bufferView":9,
			"componentType":5126,
			"count":336,
			"type":"VEC2"
		},
		{
			"bufferView":10,
			"componentType":5123,
			"count":588,
			"type":"SCALAR"
		},
		{
			"bufferView":11,
			"componentType":5126,
			"count":62,
			"max":[
				923.3562622070312,
				78.4425048828125,
				1170
			],
			"min":[
				-326.64373779296875,
				-696.5574951171875,
				-20
			],
			"type":"VEC3"
		},
		{
			"bufferView":12,
			"componentType":5126,
			"count":62,
			"type":"VEC3"
		},
		{
			"bufferView":13,
			"componentType":5126,
			"count":62,
			"type":"VEC2"
		},
		{
			"bufferView":14,
			"componentType":5123,
			"count":102,
			"type":"SCALAR"
		},
		{
			"bufferView":15,
			"componentType":5126,
			"count":78,
			"max":[
				923.3562622070312,
				163.41004943847656,
				1170
			],
			"min":[
				-326.64373779296875,
				-31.3436279296875,
				-20
			],
			"type":"VEC3"
		},
		{
			"bufferView":16,
			"componentType":5126,
			"count":78,
			"type":"VEC3"
		},
		{
			"bufferView":17,
			"componentType":5126,
			"count":78,
			"type":"VEC2"
		},
		{
			"bufferView":18,
			"componentType":5123,
			"count":159,
			"type":"SCALAR"
		},
		{
			"bufferView":19,
			"componentType":5126,
			"count":13,
			"max":[
				400,
				0,
				643.81005859375
			],
			"min":[
				-326.64373779296875,
				0,
				-20
			],
			"type":"VEC3"
		},
		{
			"bufferView":20,
			"componentType":5126,
			"count":13,
			"type":"VEC3"
		},
		{
			"bufferView":21,
			"componentType":5126,
			"count":13,
			"type":"VEC2"
		},
		{
			"bufferView":22,
			"componentType":5123,
			"count":33,
			"type":"SCALAR"
		}
	],
	"bufferViews":[
		{
			"buffer":0,
			"byteLength":192,
			"byteOffset":0,
			"target":34962
		},
		{
			"buffer":0,
			"byteLength":192,
			"byteOffset":192,
			"target":34962
		},
		{
			"buffer":0,
			"byteLength":84,
			"byteOffset":384,
			"target":34963
		},
		{
			"buffer":0,
			"byteLength":504,
			"byteOffset":468,
			"target":34962
		},
		{
			"buffer":0,
			"byteLength":504,
			"byteOffset":972,
			"target":34962
		},
		{
			"buffer":0,
			"byteLength":336,
			"byteOffset":1476,
			"target":34962
		},
		{
			"buffer":0,
			"byteLength":216,
			"byteOffset":1812,
			"target":34963
		},
		{
			"buffer":0,
			"byteLength":4032,
			"byteOffset":2028,
			"target":34962
		},
		{
			"buffer":0,
			"byteLength":4032,
			"byteOffset":6060,
			"target":34962
		},
		{
			"buffer":0,
			"byteLength":2688,
			"byteOffset":10092,
			"target":34962
		},
		{
			"buffer":0,
			"byteLength":1176,
			"byteOffset":12780,
			"target":34963
		},
		{
			"buffer":0,
			"byteLength":744,
			"byteOffset":13956,
			"target":34962
		},
		{
			"buffer":0,
			"byteLength":744,
			"byteOffset":14700,
			"target":34962
		},
		{
			"buffer":0,
			"byteLength":496,
			"byteOffset":15444,
			"target":34962
		},
		{
			"buffer":0,
			"byteLength":204,
			"byteOffset":15940,
			"target":34963
		},
		{
			"buffer":0,
			"byteLength":936,
			"byteOffset":16144,
			"target":34962
		},
		{
			"buffer":0,
			"byteLength":936,
			"byteOffset":17080,
			"target":34962
		},
		{
			"buffer":0,
			"byteLength":624,
			"byteOffset":18016,
			"target":34962
		},
		{
			"buffer":0,
			"byteLength":318,
			"byteOffset":18640,
			"target":34963
		},
		{
			"buffer":0,
			"byteLength":156,
			"byteOffset":18960,
			"target":34962
		},
		{
			"buffer":0,
			"byteLength":156,
			"byteOffset":19116,
			"target":34962
		},
		{
			"buffer":0,
			"byteLength":104,
			"byteOffset":19272,
			"target":34962
		},
		{
			"buffer":0,
			"byteLength":66,
			"byteOffset":19376,
			"target":34963
		}
	],
	"samplers":[
		{
			"magFilter":9728,
			"minFilter":9984
		},
		{
			"magFilter":9729,
			"minFilter":9987
		}
	],
	"buffers":[
		{
			"byteLength":19444,
			"uri":"level.bin"
		}
	]
}
