{
	"asset":{
		"generator":"Khronos glTF Blender I/O v4.5.48",
		"version":"2.0"
	},
	"extensionsUsed":[
		"KHR_materials_unlit"
	],
	"scene":0,
	"scenes":[
		{
			"name":"Scene",
			"nodes":[
				0,
				1,
				2,
				3,
				4
			]
		}
	],
	"nodes":[
		{
			"mesh":0,
			"name":"collision"
		},
		{
			"mesh":1,
			"name":"walls"
		},
		{
			"mesh":2,
			"name":"crate"
		},
		{
			"name":"_player"
		},
		{
			"mesh":3,
			"name":"Cube"
		}
	],
	"materials":[
		{
			"extensions":{
				"KHR_materials_unlit":{}
			},
			"name":"concrete",
			"pbrMetallicRoughness":{
				"baseColorTexture":{
					"index":0
				},
				"metallicFactor":0,
				"roughnessFactor":0.9
			}
		},
		{
			"extensions":{
				"KHR_materials_unlit":{}
			},
			"name":"crate",
			"pbrMetallicRoughness":{
				"baseColorTexture":{
					"index":1
				},
				"metallicFactor":0,
				"roughnessFactor":0.9
			}
		}
	],
	"meshes":[
		{
			"name":"collision",
			"primitives":[
				{
					"attributes":{
						"POSITION":0,
						"NORMAL":1
					},
					"indices":2
				}
			]
		},
		{
			"name":"warehouse",
			"primitives":[
				{
					"attributes":{
						"POSITION":3,
						"NORMAL":4,
						"TEXCOORD_0":5
					},
					"indices":6,
					"material":0
				}
			]
		},
		{
			"name":"crate",
			"primitives":[
				{
					"attributes":{
						"POSITION":7,
						"NORMAL":8,
						"TEXCOORD_0":9
					},
					"indices":10,
					"material":1
				}
			]
		},
		{
			"name":"Cube",
			"primitives":[
				{
					"attributes":{
						"POSITION":11,
						"NORMAL":12,
						"TEXCOORD_0":13
					},
					"indices":14
				}
			]
		}
	],
	"textures":[
		{
			"sampler":0,
			"source":0
		},
		{
			"sampler":0,
			"source":1
		}
	],
	"images":[
		{
			"mimeType":"image/png",
			"name":"concrete.png",
			"uri":"concrete.png"
		},
		{
			"mimeType":"image/png",
			"name":"crate.png",
			"uri":"crate.png"
		}
	],
	"accessors":[
		{
			"bufferView":0,
			"componentType":5126,
			"count":6,
			"max":[
				400,
				0,
				220
			],
			"min":[
				-20,
				0,
				-20
			],
			"type":"VEC3"
		},
		{
			"bufferView":1,
			"componentType":5126,
			"count":6,
			"type":"VEC3"
		},
		{
			"bufferView":2,
			"componentType":5123,
			"count":12,
			"type":"SCALAR"
		},
		{
			"bufferView":3,
			"componentType":5126,
			"count":14,
			"max":[
				400,
				106.41952514648438,
				220
			],
			"min":[
				-20,
				0,
				-20
			],
			"type":"VEC3"
		},
		{
			"bufferView":4,
			"componentType":5126,
			"count":14,
			"type":"VEC3"
		},
		{
			"bufferView":5,
			"componentType":5126,
			"count":14,
			"type":"VEC2"
		},
		{
			"bufferView":6,
			"componentType":5123,
			"count":36,
			"type":"SCALAR"
		},
		{
			"bufferView":7,
			"componentType":5126,
			"count":14,
			"max":[
				389.2879943847656,
				40,
				210.03695678710938
			],
			"min":[
				349.2879943847656,
				0,
				170.03695678710938
			],
			"type":"VEC3"
		},
		{
			"bufferView":8,
			"componentType":5126,
			"count":14,
			"type":"VEC3"
		},
		{
			"bufferView":9,
			"componentType":5126,
			"count":14,
			"type":"VEC2"
		},
		{
			"bufferView":10,
			"componentType":5123,
			"count":36,
			"type":"SCALAR"
		},
		{
			"bufferView":11,
			"componentType":5126,
			"count":24,
			"max":[
				0.8508999943733215,
				0.8508999943733215,
				0.8508999943733215
			],
			"min":[
				-0.8508999943733215,
				-0.8508999943733215,
				-0.8508999943733215
			],
			"type":"VEC3"
		},
		{
			"bufferView":12,
			"componentType":5126,
			"count":24,
			"type":"VEC3"
		},
		{
			"bufferView":13,
			"componentType":5126,
			"count":24,
			"type":"VEC2"
		},
		{
			"bufferView":14,
			"componentType":5123,
			"count":36,
			"type":"SCALAR"
		}
	],
	"bufferViews":[
		{
			"buffer":0,
			"byteLength":72,
			"byteOffset":0,
			"target":34962
		},
		{
			"buffer":0,
			"byteLength":72,
			"byteOffset":72,
			"target":34962
		},
		{
			"buffer":0,
			"byteLength":24,
			"byteOffset":144,
			"target":34963
		},
		{
			"buffer":0,
			"byteLength":168,
			"byteOffset":168,
			"target":34962
		},
		{
			"buffer":0,
			"byteLength":168,
			"byteOffset":336,
			"target":34962
		},
		{
			"buffer":0,
			"byteLength":112,
			"byteOffset":504,
			"target":34962
		},
		{
			"buffer":0,
			"byteLength":72,
			"byteOffset":616,
			"target":34963
		},
		{
			"buffer":0,
			"byteLength":168,
			"byteOffset":688,
			"target":34962
		},
		{
			"buffer":0,
			"byteLength":168,
			"byteOffset":856,
			"target":34962
		},
		{
			"buffer":0,
			"byteLength":112,
			"byteOffset":1024,
			"target":34962
		},
		{
			"buffer":0,
			"byteLength":72,
			"byteOffset":1136,
			"target":34963
		},
		{
			"buffer":0,
			"byteLength":288,
			"byteOffset":1208,
			"target":34962
		},
		{
			"buffer":0,
			"byteLength":288,
			"byteOffset":1496,
			"target":34962
		},
		{
			"buffer":0,
			"byteLength":192,
			"byteOffset":1784,
			"target":34962
		},
		{
			"buffer":0,
			"byteLength":72,
			"byteOffset":1976,
			"target":34963
		}
	],
	"samplers":[
		{
			"magFilter":9729,
			"minFilter":9987
		}
	],
	"buffers":[
		{
			"byteLength":2048,
			"uri":"level.bin"
		}
	]
}
