{
	"asset":{
		"generator":"Khronos glTF Blender I/O v4.5.48",
		"version":"2.0"
	},
	"extensionsUsed":[
		"KHR_materials_unlit"
	],
	"scene":0,
	"scenes":[
		{
			"name":"Scene",
			"nodes":[
				0,
				1,
				2,
				3,
				4,
				5,
				6,
				7,
				8,
				9
			]
		}
	],
	"nodes":[
		{
			"mesh":0,
			"name":"walkable_0"
		},
		{
			"name":"_player"
		},
		{
			"mesh":1,
			"name":"crate"
		},
		{
			"mesh":2,
			"name":"rust"
		},
		{
			"mesh":3,
			"name":"concrete-shaded"
		},
		{
			"mesh":4,
			"name":"concrete"
		},
		{
			"mesh":5,
			"name":"grate"
		},
		{
			"mesh":6,
			"name":"sky"
		},
		{
			"mesh":7,
			"name":"warning"
		},
		{
			"mesh":8,
			"name":"ladders"
		}
	],
	"materials":[
		{
			"extensions":{
				"KHR_materials_unlit":{}
			},
			"name":"crate",
			"pbrMetallicRoughness":{
				"baseColorTexture":{
					"index":0
				},
				"metallicFactor":0,
				"roughnessFactor":0.9
			}
		},
		{
			"extensions":{
				"KHR_materials_unlit":{}
			},
			"name":"rust",
			"pbrMetallicRoughness":{
				"baseColorTexture":{
					"index":1
				},
				"metallicFactor":0,
				"roughnessFactor":0.9
			}
		},
		{
			"extensions":{
				"KHR_materials_unlit":{}
			},
			"name":"bottomless-pit",
			"pbrMetallicRoughness":{
				"baseColorTexture":{
					"index":2
				},
				"metallicFactor":0,
				"roughnessFactor":0.9
			}
		},
		{
			"extensions":{
				"KHR_materials_unlit":{}
			},
			"name":"concrete",
			"pbrMetallicRoughness":{
				"baseColorTexture":{
					"index":3
				},
				"metallicFactor":0,
				"roughnessFactor":0.9
			}
		},
		{
			"extensions":{
				"KHR_materials_unlit":{}
			},
			"name":"grate",
			"pbrMetallicRoughness":{
				"baseColorTexture":{
					"index":4
				},
				"metallicFactor":0,
				"roughnessFactor":0.9
			}
		},
		{
			"extensions":{
				"KHR_materials_unlit":{}
			},
			"name":"space",
			"pbrMetallicRoughness":{
				"baseColorTexture":{
					"index":5
				},
				"metallicFactor":0,
				"roughnessFactor":0.9
			}
		},
		{
			"extensions":{
				"KHR_materials_unlit":{}
			},
			"name":"warning",
			"pbrMetallicRoughness":{
				"baseColorTexture":{
					"index":6
				},
				"metallicFactor":0,
				"roughnessFactor":0.9
			}
		},
		{
			"extensions":{
				"KHR_materials_unlit":{}
			},
			"name":"ladder",
			"pbrMetallicRoughness":{
				"baseColorTexture":{
					"index":7
				},
				"metallicFactor":0,
				"roughnessFactor":0.9
			}
		}
	],
	"meshes":[
		{
			"name":"walkable_0",
			"primitives":[
				{
					"attributes":{
						"POSITION":0,
						"NORMAL":1
					},
					"indices":2
				}
			]
		},
		{
			"name":"crate.001",
			"primitives":[
				{
					"attributes":{
						"POSITION":3,
						"NORMAL":4,
						"TEXCOORD_0":5
					},
					"indices":6,
					"material":0
				}
			]
		},
		{
			"name":"Cube.002",
			"primitives":[
				{
					"attributes":{
						"POSITION":7,
						"NORMAL":8,
						"TEXCOORD_0":9
					},
					"indices":10,
					"material":1
				}
			]
		},
		{
			"name":"warehouse.004",
			"primitives":[
				{
					"attributes":{
						"POSITION":11,
						"NORMAL":12,
						"TEXCOORD_0":13
					},
					"indices":14,
					"material":2
				}
			]
		},
		{
			"name":"warehouse.005",
			"primitives":[
				{
					"attributes":{
						"POSITION":15,
						"NORMAL":16,
						"TEXCOORD_0":17
					},
					"indices":18,
					"material":3
				}
			]
		},
		{
			"name":"warehouse.006",
			"primitives":[
				{
					"attributes":{
						"POSITION":19,
						"NORMAL":20,
						"TEXCOORD_0":21
					},
					"indices":22,
					"material":4
				}
			]
		},
		{
			"name":"Sphere.001",
			"primitives":[
				{
					"attributes":{
						"POSITION":23,
						"NORMAL":24,
						"TEXCOORD_0":25
					},
					"indices":26,
					"material":5
				}
			]
		},
		{
			"name":"warehouse.002",
			"primitives":[
				{
					"attributes":{
						"POSITION":27,
						"NORMAL":28,
						"TEXCOORD_0":29
					},
					"indices":30,
					"material":6
				}
			]
		},
		{
			"name":"Plane",
			"primitives":[
				{
					"attributes":{
						"POSITION":31,
						"NORMAL":32,
						"TEXCOORD_0":33
					},
					"indices":34,
					"material":7
				}
			]
		}
	],
	"textures":[
		{
			"sampler":0,
			"source":0
		},
		{
			"sampler":0,
			"source":1
		},
		{
			"sampler":0,
			"source":2
		},
		{
			"sampler":0,
			"source":3
		},
		{
			"sampler":0,
			"source":4
		},
		{
			"sampler":0,
			"source":5
		},
		{
			"sampler":1,
			"source":6
		},
		{
			"sampler":1,
			"source":7
		}
	],
	"images":[
		{
			"mimeType":"image/png",
			"name":"crate.png",
			"uri":"crate.png"
		},
		{
			"mimeType":"image/png",
			"name":"rust.png",
			"uri":"rust.png"
		},
		{
			"mimeType":"image/png",
			"name":"concrete-fade.png",
			"uri":"concrete-fade.png"
		},
		{
			"mimeType":"image/png",
			"name":"concrete.png",
			"uri":"concrete.png"
		},
		{
			"mimeType":"image/png",
			"name":"grate.png",
			"uri":"grate.png"
		},
		{
			"mimeType":"image/png",
			"name":"earth.png",
			"uri":"earth.png"
		},
		{
			"mimeType":"image/png",
			"name":"warning.png",
			"uri":"warning.png"
		},
		{
			"mimeType":"image/png",
			"name":"ladder.png",
			"uri":"ladder.png"
		}
	],
	"accessors":[
		{
			"bufferView":0,
			"componentType":5126,
			"count":34,
			"max":[
				389.7203369140625,
				0,
				633.7057495117188
			],
			"min":[
				-313.4442443847656,
				-16,
				-11.233756065368652
			],
			"type":"VEC3"
		},
		{
			"bufferView":1,
			"componentType":5126,
			"count":34,
			"type":"VEC3"
		},
		{
			"bufferView":2,
			"componentType":5123,
			"count":120,
			"type":"SCALAR"
		},
		{
			"bufferView":3,
			"componentType":5126,
			"count":42,
			"max":[
				393.9545593261719,
				64,
				215.5602264404297
			],
			"min":[
				344.0385437011719,
				-16,
				125.65971374511719
			],
			"type":"VEC3"
		},
		{
			"bufferView":4,
			"componentType":5126,
			"count":42,
			"type":"VEC3"
		},
		{
			"bufferView":5,
			"componentType":5126,
			"count":42,
			"type":"VEC2"
		},
		{
			"bufferView":6,
			"componentType":5123,
			"count":108,
			"type":"SCALAR"
		},
		{
			"bufferView":7,
			"componentType":5126,
			"count":233,
			"max":[
				400,
				53.73430633544922,
				647.4766235351562
			],
			"min":[
				-326.64373779296875,
				-16,
				-20
			],
			"type":"VEC3"
		},
		{
			"bufferView":8,
			"componentType":5126,
			"count":233,
			"type":"VEC3"
		},
		{
			"bufferView":9,
			"componentType":5126,
			"count":233,
			"type":"VEC2"
		},
		{
			"bufferView":10,
			"componentType":5123,
			"count":693,
			"type":"SCALAR"
		},
		{
			"bufferView":11,
			"componentType":5126,
			"count":67,
			"max":[
				400,
				78.4425048828125,
				643.81005859375
			],
			"min":[
				-326.64373779296875,
				-232.36862182617188,
				-20
			],
			"type":"VEC3"
		},
		{
			"bufferView":12,
			"componentType":5126,
			"count":67,
			"type":"VEC3"
		},
		{
			"bufferView":13,
			"componentType":5126,
			"count":67,
			"type":"VEC2"
		},
		{
			"bufferView":14,
			"componentType":5123,
			"count":105,
			"type":"SCALAR"
		},
		{
			"bufferView":15,
			"componentType":5126,
			"count":97,
			"max":[
				461.4152526855469,
				173.49851989746094,
				1170
			],
			"min":[
				-403.111572265625,
				-31.3436279296875,
				-20
			],
			"type":"VEC3"
		},
		{
			"bufferView":16,
			"componentType":5126,
			"count":97,
			"type":"VEC3"
		},
		{
			"bufferView":17,
			"componentType":5126,
			"count":97,
			"type":"VEC2"
		},
		{
			"bufferView":18,
			"componentType":5123,
			"count":165,
			"type":"SCALAR"
		},
		{
			"bufferView":19,
			"componentType":5126,
			"count":44,
			"max":[
				400,
				0,
				643.81005859375
			],
			"min":[
				-326.64373779296875,
				-232.36862182617188,
				-20
			],
			"type":"VEC3"
		},
		{
			"bufferView":20,
			"componentType":5126,
			"count":44,
			"type":"VEC3"
		},
		{
			"bufferView":21,
			"componentType":5126,
			"count":44,
			"type":"VEC2"
		},
		{
			"bufferView":22,
			"componentType":5123,
			"count":96,
			"type":"SCALAR"
		},
		{
			"bufferView":23,
			"componentType":5126,
			"count":155,
			"max":[
				3999.99951171875,
				4000,
				3999.9990234375
			],
			"min":[
				-3999.99853515625,
				-4000,
				-4000
			],
			"type":"VEC3"
		},
		{
			"bufferView":24,
			"componentType":5126,
			"count":155,
			"type":"VEC3"
		},
		{
			"bufferView":25,
			"componentType":5126,
			"count":155,
			"type":"VEC2"
		},
		{
			"bufferView":26,
			"componentType":5123,
			"count":672,
			"type":"SCALAR"
		},
		{
			"bufferView":27,
			"componentType":5126,
			"count":38,
			"max":[
				126.90096282958984,
				0,
				643.81005859375
			],
			"min":[
				-326.64373779296875,
				-8,
				-20
			],
			"type":"VEC3"
		},
		{
			"bufferView":28,
			"componentType":5126,
			"count":38,
			"type":"VEC3"
		},
		{
			"bufferView":29,
			"componentType":5126,
			"count":38,
			"type":"VEC2"
		},
		{
			"bufferView":30,
			"componentType":5123,
			"count":60,
			"type":"SCALAR"
		},
		{
			"bufferView":31,
			"componentType":5126,
			"count":4,
			"max":[
				-264.1271667480469,
				62.629722595214844,
				569.5231323242188
			],
			"min":[
				-306.8843688964844,
				-232.37521362304688,
				569.5231323242188
			],
			"type":"VEC3"
		},
		{
			"bufferView":32,
			"componentType":5126,
			"count":4,
			"type":"VEC3"
		},
		{
			"bufferView":33,
			"componentType":5126,
			"count":4,
			"type":"VEC2"
		},
		{
			"bufferView":34,
			"componentType":5123,
			"count":6,
			"type":"SCALAR"
		}
	],
	"bufferViews":[
		{
			"buffer":0,
			"byteLength":408,
			"byteOffset":0,
			"target":34962
		},
		{
			"buffer":0,
			"byteLength":408,
			"byteOffset":408,
			"target":34962
		},
		{
			"buffer":0,
			"byteLength":240,
			"byteOffset":816,
			"target":34963
		},
		{
			"buffer":0,
			"byteLength":504,
			"byteOffset":1056,
			"target":34962
		},
		{
			"buffer":0,
			"byteLength":504,
			"byteOffset":1560,
			"target":34962
		},
		{
			"buffer":0,
			"byteLength":336,
			"byteOffset":2064,
			"target":34962
		},
		{
			"buffer":0,
			"byteLength":216,
			"byteOffset":2400,
			"target":34963
		},
		{
			"buffer":0,
			"byteLength":2796,
			"byteOffset":2616,
			"target":34962
		},
		{
			"buffer":0,
			"byteLength":2796,
			"byteOffset":5412,
			"target":34962
		},
		{
			"buffer":0,
			"byteLength":1864,
			"byteOffset":8208,
			"target":34962
		},
		{
			"buffer":0,
			"byteLength":1386,
			"byteOffset":10072,
			"target":34963
		},
		{
			"buffer":0,
			"byteLength":804,
			"byteOffset":11460,
			"target":34962
		},
		{
			"buffer":0,
			"byteLength":804,
			"byteOffset":12264,
			"target":34962
		},
		{
			"buffer":0,
			"byteLength":536,
			"byteOffset":13068,
			"target":34962
		},
		{
			"buffer":0,
			"byteLength":210,
			"byteOffset":13604,
			"target":34963
		},
		{
			"buffer":0,
			"byteLength":1164,
			"byteOffset":13816,
			"target":34962
		},
		{
			"buffer":0,
			"byteLength":1164,
			"byteOffset":14980,
			"target":34962
		},
		{
			"buffer":0,
			"byteLength":776,
			"byteOffset":16144,
			"target":34962
		},
		{
			"buffer":0,
			"byteLength":330,
			"byteOffset":16920,
			"target":34963
		},
		{
			"buffer":0,
			"byteLength":528,
			"byteOffset":17252,
			"target":34962
		},
		{
			"buffer":0,
			"byteLength":528,
			"byteOffset":17780,
			"target":34962
		},
		{
			"buffer":0,
			"byteLength":352,
			"byteOffset":18308,
			"target":34962
		},
		{
			"buffer":0,
			"byteLength":192,
			"byteOffset":18660,
			"target":34963
		},
		{
			"buffer":0,
			"byteLength":1860,
			"byteOffset":18852,
			"target":34962
		},
		{
			"buffer":0,
			"byteLength":1860,
			"byteOffset":20712,
			"target":34962
		},
		{
			"buffer":0,
			"byteLength":1240,
			"byteOffset":22572,
			"target":34962
		},
		{
			"buffer":0,
			"byteLength":1344,
			"byteOffset":23812,
			"target":34963
		},
		{
			"buffer":0,
			"byteLength":456,
			"byteOffset":25156,
			"target":34962
		},
		{
			"buffer":0,
			"byteLength":456,
			"byteOffset":25612,
			"target":34962
		},
		{
			"buffer":0,
			"byteLength":304,
			"byteOffset":26068,
			"target":34962
		},
		{
			"buffer":0,
			"byteLength":120,
			"byteOffset":26372,
			"target":34963
		},
		{
			"buffer":0,
			"byteLength":48,
			"byteOffset":26492,
			"target":34962
		},
		{
			"buffer":0,
			"byteLength":48,
			"byteOffset":26540,
			"target":34962
		},
		{
			"buffer":0,
			"byteLength":32,
			"byteOffset":26588,
			"target":34962
		},
		{
			"buffer":0,
			"byteLength":12,
			"byteOffset":26620,
			"target":34963
		}
	],
	"samplers":[
		{
			"magFilter":9729,
			"minFilter":9987
		},
		{
			"magFilter":9728,
			"minFilter":9984
		}
	],
	"buffers":[
		{
			"byteLength":26632,
			"uri":"level.bin"
		}
	]
}
