{
	"asset":{
		"generator":"Khronos glTF Blender I/O v4.5.48",
		"version":"2.0"
	},
	"extensionsUsed":[
		"KHR_materials_unlit"
	],
	"scene":0,
	"scenes":[
		{
			"name":"Scene",
			"nodes":[
				0,
				1,
				2,
				3,
				4,
				5,
				6,
				7,
				8
			]
		}
	],
	"nodes":[
		{
			"mesh":0,
			"name":"collision"
		},
		{
			"name":"_player"
		},
		{
			"mesh":1,
			"name":"crate"
		},
		{
			"mesh":2,
			"name":"rust"
		},
		{
			"mesh":3,
			"name":"concrete-shaded"
		},
		{
			"mesh":4,
			"name":"concrete"
		},
		{
			"mesh":5,
			"name":"grate"
		},
		{
			"mesh":6,
			"name":"sky"
		},
		{
			"mesh":7,
			"name":"warning"
		}
	],
	"materials":[
		{
			"extensions":{
				"KHR_materials_unlit":{}
			},
			"name":"crate",
			"pbrMetallicRoughness":{
				"baseColorTexture":{
					"index":0
				},
				"metallicFactor":0,
				"roughnessFactor":0.9
			}
		},
		{
			"doubleSided":true,
			"extensions":{
				"KHR_materials_unlit":{}
			},
			"name":"rust",
			"pbrMetallicRoughness":{
				"baseColorTexture":{
					"index":1
				},
				"metallicFactor":0,
				"roughnessFactor":0.9
			}
		},
		{
			"doubleSided":true,
			"extensions":{
				"KHR_materials_unlit":{}
			},
			"name":"bottomless-pit",
			"pbrMetallicRoughness":{
				"baseColorTexture":{
					"index":2
				},
				"metallicFactor":0,
				"roughnessFactor":0.9
			}
		},
		{
			"extensions":{
				"KHR_materials_unlit":{}
			},
			"name":"concrete",
			"pbrMetallicRoughness":{
				"baseColorTexture":{
					"index":3
				},
				"metallicFactor":0,
				"roughnessFactor":0.9
			}
		},
		{
			"doubleSided":true,
			"extensions":{
				"KHR_materials_unlit":{}
			},
			"name":"grate",
			"pbrMetallicRoughness":{
				"baseColorTexture":{
					"index":4
				},
				"metallicFactor":0,
				"roughnessFactor":0.9
			}
		},
		{
			"doubleSided":true,
			"extensions":{
				"KHR_materials_unlit":{}
			},
			"name":"space",
			"pbrMetallicRoughness":{
				"baseColorTexture":{
					"index":5
				},
				"metallicFactor":0,
				"roughnessFactor":0.9
			}
		},
		{
			"doubleSided":true,
			"extensions":{
				"KHR_materials_unlit":{}
			},
			"name":"warning",
			"pbrMetallicRoughness":{
				"baseColorTexture":{
					"index":6
				},
				"metallicFactor":0,
				"roughnessFactor":0.9
			}
		}
	],
	"meshes":[
		{
			"name":"collision",
			"primitives":[
				{
					"attributes":{
						"POSITION":0,
						"NORMAL":1
					},
					"indices":2
				}
			]
		},
		{
			"name":"crate.001",
			"primitives":[
				{
					"attributes":{
						"POSITION":3,
						"NORMAL":4,
						"TEXCOORD_0":5
					},
					"indices":6,
					"material":0
				}
			]
		},
		{
			"name":"Cube.002",
			"primitives":[
				{
					"attributes":{
						"POSITION":7,
						"NORMAL":8,
						"TEXCOORD_0":9
					},
					"indices":10,
					"material":1
				}
			]
		},
		{
			"name":"warehouse.004",
			"primitives":[
				{
					"attributes":{
						"POSITION":11,
						"NORMAL":12,
						"TEXCOORD_0":13
					},
					"indices":14,
					"material":2
				}
			]
		},
		{
			"name":"warehouse.005",
			"primitives":[
				{
					"attributes":{
						"POSITION":15,
						"NORMAL":16,
						"TEXCOORD_0":17
					},
					"indices":18,
					"material":3
				}
			]
		},
		{
			"name":"warehouse.006",
			"primitives":[
				{
					"attributes":{
						"POSITION":19,
						"NORMAL":20,
						"TEXCOORD_0":21
					},
					"indices":22,
					"material":4
				}
			]
		},
		{
			"name":"Sphere.001",
			"primitives":[
				{
					"attributes":{
						"POSITION":23,
						"NORMAL":24,
						"TEXCOORD_0":25
					},
					"indices":26,
					"material":5
				}
			]
		},
		{
			"name":"warehouse.002",
			"primitives":[
				{
					"attributes":{
						"POSITION":27,
						"NORMAL":28,
						"TEXCOORD_0":29
					},
					"indices":30,
					"material":6
				}
			]
		}
	],
	"textures":[
		{
			"sampler":0,
			"source":0
		},
		{
			"sampler":0,
			"source":1
		},
		{
			"sampler":0,
			"source":2
		},
		{
			"sampler":0,
			"source":3
		},
		{
			"sampler":0,
			"source":4
		},
		{
			"sampler":0,
			"source":5
		},
		{
			"sampler":1,
			"source":6
		}
	],
	"images":[
		{
			"mimeType":"image/png",
			"name":"crate.png",
			"uri":"crate.png"
		},
		{
			"mimeType":"image/png",
			"name":"rust.png",
			"uri":"rust.png"
		},
		{
			"mimeType":"image/png",
			"name":"concrete-fade.png",
			"uri":"concrete-fade.png"
		},
		{
			"mimeType":"image/png",
			"name":"concrete.png",
			"uri":"concrete.png"
		},
		{
			"mimeType":"image/png",
			"name":"grate.png",
			"uri":"grate.png"
		},
		{
			"mimeType":"image/png",
			"name":"earth.png",
			"uri":"earth.png"
		},
		{
			"mimeType":"image/png",
			"name":"warning.png",
			"uri":"warning.png"
		}
	],
	"accessors":[
		{
			"bufferView":0,
			"componentType":5126,
			"count":32,
			"max":[
				389.7203369140625,
				0,
				633.7057495117188
			],
			"min":[
				-313.4442443847656,
				-16,
				-11.233756065368652
			],
			"type":"VEC3"
		},
		{
			"bufferView":1,
			"componentType":5126,
			"count":32,
			"type":"VEC3"
		},
		{
			"bufferView":2,
			"componentType":5123,
			"count":114,
			"type":"SCALAR"
		},
		{
			"bufferView":3,
			"componentType":5126,
			"count":42,
			"max":[
				393.9545593261719,
				64,
				215.5602264404297
			],
			"min":[
				344.0385437011719,
				-16,
				125.65971374511719
			],
			"type":"VEC3"
		},
		{
			"bufferView":4,
			"componentType":5126,
			"count":42,
			"type":"VEC3"
		},
		{
			"bufferView":5,
			"componentType":5126,
			"count":42,
			"type":"VEC2"
		},
		{
			"bufferView":6,
			"componentType":5123,
			"count":108,
			"type":"SCALAR"
		},
		{
			"bufferView":7,
			"componentType":5126,
			"count":385,
			"max":[
				400,
				53.73430633544922,
				647.4766235351562
			],
			"min":[
				-48.92827224731445,
				-16,
				-20
			],
			"type":"VEC3"
		},
		{
			"bufferView":8,
			"componentType":5126,
			"count":385,
			"type":"VEC3"
		},
		{
			"bufferView":9,
			"componentType":5126,
			"count":385,
			"type":"VEC2"
		},
		{
			"bufferView":10,
			"componentType":5123,
			"count":669,
			"type":"SCALAR"
		},
		{
			"bufferView":11,
			"componentType":5126,
			"count":49,
			"max":[
				400,
				78.4425048828125,
				643.81005859375
			],
			"min":[
				-326.64373779296875,
				-4.881933689117432,
				-20
			],
			"type":"VEC3"
		},
		{
			"bufferView":12,
			"componentType":5126,
			"count":49,
			"type":"VEC3"
		},
		{
			"bufferView":13,
			"componentType":5126,
			"count":49,
			"type":"VEC2"
		},
		{
			"bufferView":14,
			"componentType":5123,
			"count":75,
			"type":"SCALAR"
		},
		{
			"bufferView":15,
			"componentType":5126,
			"count":97,
			"max":[
				461.4152526855469,
				173.49851989746094,
				1170
			],
			"min":[
				-403.111572265625,
				-31.3436279296875,
				-20
			],
			"type":"VEC3"
		},
		{
			"bufferView":16,
			"componentType":5126,
			"count":97,
			"type":"VEC3"
		},
		{
			"bufferView":17,
			"componentType":5126,
			"count":97,
			"type":"VEC2"
		},
		{
			"bufferView":18,
			"componentType":5123,
			"count":165,
			"type":"SCALAR"
		},
		{
			"bufferView":19,
			"componentType":5126,
			"count":30,
			"max":[
				400,
				0,
				643.81005859375
			],
			"min":[
				-326.64373779296875,
				-16,
				-20
			],
			"type":"VEC3"
		},
		{
			"bufferView":20,
			"componentType":5126,
			"count":30,
			"type":"VEC3"
		},
		{
			"bufferView":21,
			"componentType":5126,
			"count":30,
			"type":"VEC2"
		},
		{
			"bufferView":22,
			"componentType":5123,
			"count":72,
			"type":"SCALAR"
		},
		{
			"bufferView":23,
			"componentType":5126,
			"count":480,
			"max":[
				3999.99951171875,
				4000,
				3999.9990234375
			],
			"min":[
				-3999.99853515625,
				-4000,
				-4000
			],
			"type":"VEC3"
		},
		{
			"bufferView":24,
			"componentType":5126,
			"count":480,
			"type":"VEC3"
		},
		{
			"bufferView":25,
			"componentType":5126,
			"count":480,
			"type":"VEC2"
		},
		{
			"bufferView":26,
			"componentType":5123,
			"count":672,
			"type":"SCALAR"
		},
		{
			"bufferView":27,
			"componentType":5126,
			"count":30,
			"max":[
				126.90096282958984,
				0,
				643.81005859375
			],
			"min":[
				-48.92826843261719,
				-8,
				-20
			],
			"type":"VEC3"
		},
		{
			"bufferView":28,
			"componentType":5126,
			"count":30,
			"type":"VEC3"
		},
		{
			"bufferView":29,
			"componentType":5126,
			"count":30,
			"type":"VEC2"
		},
		{
			"bufferView":30,
			"componentType":5123,
			"count":48,
			"type":"SCALAR"
		}
	],
	"bufferViews":[
		{
			"buffer":0,
			"byteLength":384,
			"byteOffset":0,
			"target":34962
		},
		{
			"buffer":0,
			"byteLength":384,
			"byteOffset":384,
			"target":34962
		},
		{
			"buffer":0,
			"byteLength":228,
			"byteOffset":768,
			"target":34963
		},
		{
			"buffer":0,
			"byteLength":504,
			"byteOffset":996,
			"target":34962
		},
		{
			"buffer":0,
			"byteLength":504,
			"byteOffset":1500,
			"target":34962
		},
		{
			"buffer":0,
			"byteLength":336,
			"byteOffset":2004,
			"target":34962
		},
		{
			"buffer":0,
			"byteLength":216,
			"byteOffset":2340,
			"target":34963
		},
		{
			"buffer":0,
			"byteLength":4620,
			"byteOffset":2556,
			"target":34962
		},
		{
			"buffer":0,
			"byteLength":4620,
			"byteOffset":7176,
			"target":34962
		},
		{
			"buffer":0,
			"byteLength":3080,
			"byteOffset":11796,
			"target":34962
		},
		{
			"buffer":0,
			"byteLength":1338,
			"byteOffset":14876,
			"target":34963
		},
		{
			"buffer":0,
			"byteLength":588,
			"byteOffset":16216,
			"target":34962
		},
		{
			"buffer":0,
			"byteLength":588,
			"byteOffset":16804,
			"target":34962
		},
		{
			"buffer":0,
			"byteLength":392,
			"byteOffset":17392,
			"target":34962
		},
		{
			"buffer":0,
			"byteLength":150,
			"byteOffset":17784,
			"target":34963
		},
		{
			"buffer":0,
			"byteLength":1164,
			"byteOffset":17936,
			"target":34962
		},
		{
			"buffer":0,
			"byteLength":1164,
			"byteOffset":19100,
			"target":34962
		},
		{
			"buffer":0,
			"byteLength":776,
			"byteOffset":20264,
			"target":34962
		},
		{
			"buffer":0,
			"byteLength":330,
			"byteOffset":21040,
			"target":34963
		},
		{
			"buffer":0,
			"byteLength":360,
			"byteOffset":21372,
			"target":34962
		},
		{
			"buffer":0,
			"byteLength":360,
			"byteOffset":21732,
			"target":34962
		},
		{
			"buffer":0,
			"byteLength":240,
			"byteOffset":22092,
			"target":34962
		},
		{
			"buffer":0,
			"byteLength":144,
			"byteOffset":22332,
			"target":34963
		},
		{
			"buffer":0,
			"byteLength":5760,
			"byteOffset":22476,
			"target":34962
		},
		{
			"buffer":0,
			"byteLength":5760,
			"byteOffset":28236,
			"target":34962
		},
		{
			"buffer":0,
			"byteLength":3840,
			"byteOffset":33996,
			"target":34962
		},
		{
			"buffer":0,
			"byteLength":1344,
			"byteOffset":37836,
			"target":34963
		},
		{
			"buffer":0,
			"byteLength":360,
			"byteOffset":39180,
			"target":34962
		},
		{
			"buffer":0,
			"byteLength":360,
			"byteOffset":39540,
			"target":34962
		},
		{
			"buffer":0,
			"byteLength":240,
			"byteOffset":39900,
			"target":34962
		},
		{
			"buffer":0,
			"byteLength":96,
			"byteOffset":40140,
			"target":34963
		}
	],
	"samplers":[
		{
			"magFilter":9729,
			"minFilter":9987
		},
		{
			"magFilter":9728,
			"minFilter":9984
		}
	],
	"buffers":[
		{
			"byteLength":40236,
			"uri":"level.bin"
		}
	]
}
