{
	"asset":{
		"generator":"Khronos glTF Blender I/O v4.5.48",
		"version":"2.0"
	},
	"extensionsUsed":[
		"KHR_materials_unlit"
	],
	"scene":0,
	"scenes":[
		{
			"name":"Scene",
			"nodes":[
				0,
				1,
				2,
				3,
				4,
				5,
				6,
				7,
				8
			]
		}
	],
	"nodes":[
		{
			"mesh":0,
			"name":"collision"
		},
		{
			"name":"_player"
		},
		{
			"mesh":1,
			"name":"crate",
			"translation":[
				0,
				-16,
				0
			]
		},
		{
			"mesh":2,
			"name":"rust"
		},
		{
			"mesh":3,
			"name":"bottomless-pit"
		},
		{
			"mesh":4,
			"name":"concrete"
		},
		{
			"mesh":5,
			"name":"grate"
		},
		{
			"mesh":6,
			"name":"Sphere"
		},
		{
			"mesh":7,
			"name":"grate.001"
		}
	],
	"materials":[
		{
			"extensions":{
				"KHR_materials_unlit":{}
			},
			"name":"crate",
			"pbrMetallicRoughness":{
				"metallicFactor":0,
				"roughnessFactor":0.9
			}
		},
		{
			"doubleSided":true,
			"extensions":{
				"KHR_materials_unlit":{}
			},
			"name":"rust",
			"pbrMetallicRoughness":{
				"metallicFactor":0,
				"roughnessFactor":0.9
			}
		},
		{
			"doubleSided":true,
			"extensions":{
				"KHR_materials_unlit":{}
			},
			"name":"bottomless-pit",
			"pbrMetallicRoughness":{
				"metallicFactor":0,
				"roughnessFactor":0.9
			}
		},
		{
			"extensions":{
				"KHR_materials_unlit":{}
			},
			"name":"concrete",
			"pbrMetallicRoughness":{
				"metallicFactor":0,
				"roughnessFactor":0.9
			}
		},
		{
			"doubleSided":true,
			"extensions":{
				"KHR_materials_unlit":{}
			},
			"name":"grate",
			"pbrMetallicRoughness":{
				"metallicFactor":0,
				"roughnessFactor":0.9
			}
		},
		{
			"doubleSided":true,
			"extensions":{
				"KHR_materials_unlit":{}
			},
			"name":"space",
			"pbrMetallicRoughness":{
				"metallicFactor":0,
				"roughnessFactor":0.9
			}
		}
	],
	"meshes":[
		{
			"name":"collision",
			"primitives":[
				{
					"attributes":{
						"POSITION":0,
						"NORMAL":1
					},
					"indices":2
				}
			]
		},
		{
			"name":"crate.001",
			"primitives":[
				{
					"attributes":{
						"POSITION":3,
						"NORMAL":4,
						"TEXCOORD_0":5
					},
					"indices":6,
					"material":0
				}
			]
		},
		{
			"name":"Cube.002",
			"primitives":[
				{
					"attributes":{
						"POSITION":7,
						"NORMAL":8,
						"TEXCOORD_0":9
					},
					"indices":10,
					"material":1
				}
			]
		},
		{
			"name":"warehouse.004",
			"primitives":[
				{
					"attributes":{
						"POSITION":11,
						"NORMAL":12,
						"TEXCOORD_0":13
					},
					"indices":14,
					"material":2
				}
			]
		},
		{
			"name":"warehouse.005",
			"primitives":[
				{
					"attributes":{
						"POSITION":15,
						"NORMAL":16,
						"TEXCOORD_0":17
					},
					"indices":18,
					"material":3
				}
			]
		},
		{
			"name":"warehouse.006",
			"primitives":[
				{
					"attributes":{
						"POSITION":19,
						"NORMAL":20,
						"TEXCOORD_0":21
					},
					"indices":22,
					"material":4
				}
			]
		},
		{
			"name":"Sphere.001",
			"primitives":[
				{
					"attributes":{
						"POSITION":23,
						"NORMAL":24,
						"TEXCOORD_0":25
					},
					"indices":26,
					"material":5
				}
			]
		},
		{
			"name":"warehouse.001",
			"primitives":[
				{
					"attributes":{
						"POSITION":27,
						"NORMAL":28,
						"TEXCOORD_0":29
					},
					"indices":30,
					"material":1
				}
			]
		}
	],
	"accessors":[
		{
			"bufferView":0,
			"componentType":5126,
			"count":32,
			"max":[
				389.7203369140625,
				0,
				633.7057495117188
			],
			"min":[
				-313.4442443847656,
				-16,
				-11.233756065368652
			],
			"type":"VEC3"
		},
		{
			"bufferView":1,
			"componentType":5126,
			"count":32,
			"type":"VEC3"
		},
		{
			"bufferView":2,
			"componentType":5123,
			"count":114,
			"type":"SCALAR"
		},
		{
			"bufferView":3,
			"componentType":5126,
			"count":42,
			"max":[
				393.9545593261719,
				80,
				215.5602264404297
			],
			"min":[
				344.0385437011719,
				0,
				125.65971374511719
			],
			"type":"VEC3"
		},
		{
			"bufferView":4,
			"componentType":5126,
			"count":42,
			"type":"VEC3"
		},
		{
			"bufferView":5,
			"componentType":5126,
			"count":42,
			"type":"VEC2"
		},
		{
			"bufferView":6,
			"componentType":5123,
			"count":108,
			"type":"SCALAR"
		},
		{
			"bufferView":7,
			"componentType":5126,
			"count":336,
			"max":[
				83.514892578125,
				53.73430633544922,
				647.4766235351562
			],
			"min":[
				70.41070556640625,
				-6.779232025146484,
				368
			],
			"type":"VEC3"
		},
		{
			"bufferView":8,
			"componentType":5126,
			"count":336,
			"type":"VEC3"
		},
		{
			"bufferView":9,
			"componentType":5126,
			"count":336,
			"type":"VEC2"
		},
		{
			"bufferView":10,
			"componentType":5123,
			"count":588,
			"type":"SCALAR"
		},
		{
			"bufferView":11,
			"componentType":5126,
			"count":48,
			"max":[
				400,
				78.4425048828125,
				643.81005859375
			],
			"min":[
				-326.64373779296875,
				0,
				-20
			],
			"type":"VEC3"
		},
		{
			"bufferView":12,
			"componentType":5126,
			"count":48,
			"type":"VEC3"
		},
		{
			"bufferView":13,
			"componentType":5126,
			"count":48,
			"type":"VEC2"
		},
		{
			"bufferView":14,
			"componentType":5123,
			"count":72,
			"type":"SCALAR"
		},
		{
			"bufferView":15,
			"componentType":5126,
			"count":97,
			"max":[
				461.4152526855469,
				173.49851989746094,
				1170
			],
			"min":[
				-403.111572265625,
				-31.3436279296875,
				-20
			],
			"type":"VEC3"
		},
		{
			"bufferView":16,
			"componentType":5126,
			"count":97,
			"type":"VEC3"
		},
		{
			"bufferView":17,
			"componentType":5126,
			"count":97,
			"type":"VEC2"
		},
		{
			"bufferView":18,
			"componentType":5123,
			"count":165,
			"type":"SCALAR"
		},
		{
			"bufferView":19,
			"componentType":5126,
			"count":29,
			"max":[
				400,
				0,
				643.81005859375
			],
			"min":[
				-326.64373779296875,
				-16,
				-20
			],
			"type":"VEC3"
		},
		{
			"bufferView":20,
			"componentType":5126,
			"count":29,
			"type":"VEC3"
		},
		{
			"bufferView":21,
			"componentType":5126,
			"count":29,
			"type":"VEC2"
		},
		{
			"bufferView":22,
			"componentType":5123,
			"count":69,
			"type":"SCALAR"
		},
		{
			"bufferView":23,
			"componentType":5126,
			"count":480,
			"max":[
				3999.99951171875,
				4000,
				3999.9990234375
			],
			"min":[
				-3999.99853515625,
				-4000,
				-4000
			],
			"type":"VEC3"
		},
		{
			"bufferView":24,
			"componentType":5126,
			"count":480,
			"type":"VEC3"
		},
		{
			"bufferView":25,
			"componentType":5126,
			"count":480,
			"type":"VEC2"
		},
		{
			"bufferView":26,
			"componentType":5123,
			"count":672,
			"type":"SCALAR"
		},
		{
			"bufferView":27,
			"componentType":5126,
			"count":44,
			"max":[
				400,
				0,
				220
			],
			"min":[
				-48.92827224731445,
				-16,
				-20
			],
			"type":"VEC3"
		},
		{
			"bufferView":28,
			"componentType":5126,
			"count":44,
			"type":"VEC3"
		},
		{
			"bufferView":29,
			"componentType":5126,
			"count":44,
			"type":"VEC2"
		},
		{
			"bufferView":30,
			"componentType":5123,
			"count":72,
			"type":"SCALAR"
		}
	],
	"bufferViews":[
		{
			"buffer":0,
			"byteLength":384,
			"byteOffset":0,
			"target":34962
		},
		{
			"buffer":0,
			"byteLength":384,
			"byteOffset":384,
			"target":34962
		},
		{
			"buffer":0,
			"byteLength":228,
			"byteOffset":768,
			"target":34963
		},
		{
			"buffer":0,
			"byteLength":504,
			"byteOffset":996,
			"target":34962
		},
		{
			"buffer":0,
			"byteLength":504,
			"byteOffset":1500,
			"target":34962
		},
		{
			"buffer":0,
			"byteLength":336,
			"byteOffset":2004,
			"target":34962
		},
		{
			"buffer":0,
			"byteLength":216,
			"byteOffset":2340,
			"target":34963
		},
		{
			"buffer":0,
			"byteLength":4032,
			"byteOffset":2556,
			"target":34962
		},
		{
			"buffer":0,
			"byteLength":4032,
			"byteOffset":6588,
			"target":34962
		},
		{
			"buffer":0,
			"byteLength":2688,
			"byteOffset":10620,
			"target":34962
		},
		{
			"buffer":0,
			"byteLength":1176,
			"byteOffset":13308,
			"target":34963
		},
		{
			"buffer":0,
			"byteLength":576,
			"byteOffset":14484,
			"target":34962
		},
		{
			"buffer":0,
			"byteLength":576,
			"byteOffset":15060,
			"target":34962
		},
		{
			"buffer":0,
			"byteLength":384,
			"byteOffset":15636,
			"target":34962
		},
		{
			"buffer":0,
			"byteLength":144,
			"byteOffset":16020,
			"target":34963
		},
		{
			"buffer":0,
			"byteLength":1164,
			"byteOffset":16164,
			"target":34962
		},
		{
			"buffer":0,
			"byteLength":1164,
			"byteOffset":17328,
			"target":34962
		},
		{
			"buffer":0,
			"byteLength":776,
			"byteOffset":18492,
			"target":34962
		},
		{
			"buffer":0,
			"byteLength":330,
			"byteOffset":19268,
			"target":34963
		},
		{
			"buffer":0,
			"byteLength":348,
			"byteOffset":19600,
			"target":34962
		},
		{
			"buffer":0,
			"byteLength":348,
			"byteOffset":19948,
			"target":34962
		},
		{
			"buffer":0,
			"byteLength":232,
			"byteOffset":20296,
			"target":34962
		},
		{
			"buffer":0,
			"byteLength":138,
			"byteOffset":20528,
			"target":34963
		},
		{
			"buffer":0,
			"byteLength":5760,
			"byteOffset":20668,
			"target":34962
		},
		{
			"buffer":0,
			"byteLength":5760,
			"byteOffset":26428,
			"target":34962
		},
		{
			"buffer":0,
			"byteLength":3840,
			"byteOffset":32188,
			"target":34962
		},
		{
			"buffer":0,
			"byteLength":1344,
			"byteOffset":36028,
			"target":34963
		},
		{
			"buffer":0,
			"byteLength":528,
			"byteOffset":37372,
			"target":34962
		},
		{
			"buffer":0,
			"byteLength":528,
			"byteOffset":37900,
			"target":34962
		},
		{
			"buffer":0,
			"byteLength":352,
			"byteOffset":38428,
			"target":34962
		},
		{
			"buffer":0,
			"byteLength":144,
			"byteOffset":38780,
			"target":34963
		}
	],
	"buffers":[
		{
			"byteLength":38924,
			"uri":"level.bin"
		}
	]
}
