{
	"asset":{
		"generator":"Khronos glTF Blender I/O v4.5.48",
		"version":"2.0"
	},
	"extensionsUsed":[
		"KHR_materials_unlit"
	],
	"scene":0,
	"scenes":[
		{
			"name":"Scene",
			"nodes":[
				0,
				1,
				2,
				3,
				4,
				5,
				6,
				7,
				8,
				9,
				10,
				11,
				12,
				13,
				14,
				15,
				16
			]
		}
	],
	"nodes":[
		{
			"mesh":0,
			"name":"walkable_0"
		},
		{
			"mesh":1,
			"name":"tile.000",
			"rotation":[
				0,
				1,
				0,
				0
			],
			"scale":[
				-1,
				-1,
				-1
			],
			"translation":[
				-1.2196481227874756,
				124.00870513916016,
				292.94464111328125
			]
		},
		{
			"mesh":1,
			"name":"tile.003",
			"rotation":[
				1,
				0,
				0,
				0
			],
			"translation":[
				-1.2196481227874756,
				124.00870513916016,
				292.94464111328125
			]
		},
		{
			"mesh":1,
			"name":"tile.004",
			"scale":[
				-1,
				-1,
				-1
			],
			"translation":[
				-1.2196481227874756,
				124.00870513916016,
				292.94464111328125
			]
		},
		{
			"mesh":1,
			"name":"tile.005",
			"rotation":[
				0,
				0,
				-1,
				0
			],
			"translation":[
				-1.2196481227874756,
				124.00870513916016,
				292.94464111328125
			]
		},
		{
			"mesh":1,
			"name":"tile.006",
			"rotation":[
				1,
				0,
				0,
				0
			],
			"translation":[
				-1.2196481227874756,
				124.00870513916016,
				-31.672805786132812
			]
		},
		{
			"mesh":1,
			"name":"tile.007",
			"scale":[
				-1,
				-1,
				-1
			],
			"translation":[
				-1.2196481227874756,
				124.00870513916016,
				-31.672805786132812
			]
		},
		{
			"mesh":1,
			"name":"tile.001",
			"rotation":[
				0,
				1,
				0,
				0
			],
			"scale":[
				-1,
				-1,
				-1
			],
			"translation":[
				-1.2196481227874756,
				124.00870513916016,
				-31.672821044921875
			]
		},
		{
			"mesh":1,
			"name":"tile.002",
			"rotation":[
				0,
				0,
				-1,
				0
			],
			"translation":[
				-1.2196481227874756,
				124.00870513916016,
				-31.672821044921875
			]
		},
		{
			"mesh":1,
			"name":"tile.008",
			"rotation":[
				0,
				0.993571937084198,
				0.11320322006940842,
				0
			],
			"scale":[
				-1,
				-1,
				-1
			],
			"translation":[
				-1.2196481227874756,
				11.545738220214844,
				957.7551879882812
			]
		},
		{
			"mesh":1,
			"name":"tile.009",
			"rotation":[
				-0.993571937084198,
				0,
				0,
				0.11320322006940842
			],
			"translation":[
				-1.2196481227874756,
				11.545738220214844,
				957.7551879882812
			]
		},
		{
			"mesh":1,
			"name":"tile.010",
			"rotation":[
				0.11320322006940842,
				0,
				0,
				0.993571937084198
			],
			"scale":[
				-1,
				-1,
				-1
			],
			"translation":[
				-1.2196481227874756,
				11.545738220214844,
				957.7551879882812
			]
		},
		{
			"mesh":1,
			"name":"tile.011",
			"rotation":[
				0,
				0.11320322006940842,
				-0.993571937084198,
				0
			],
			"translation":[
				-1.2196481227874756,
				11.545738220214844,
				957.7551879882812
			]
		},
		{
			"mesh":1,
			"name":"tile.012",
			"rotation":[
				-0.993571937084198,
				0,
				0,
				0.11320322006940842
			],
			"translation":[
				-1.2196481227874756,
				84.56876373291016,
				641.4577026367188
			]
		},
		{
			"mesh":1,
			"name":"tile.013",
			"rotation":[
				0.11320322006940842,
				0,
				0,
				0.993571937084198
			],
			"scale":[
				-1,
				-1,
				-1
			],
			"translation":[
				-1.2196481227874756,
				84.56876373291016,
				641.4577026367188
			]
		},
		{
			"mesh":1,
			"name":"tile.014",
			"rotation":[
				0,
				0.993571937084198,
				0.11320322006940842,
				0
			],
			"scale":[
				-1,
				-1,
				-1
			],
			"translation":[
				-1.2196481227874756,
				84.56876373291016,
				641.4577026367188
			]
		},
		{
			"mesh":1,
			"name":"tile.015",
			"rotation":[
				0,
				0.11320322006940842,
				-0.993571937084198,
				0
			],
			"translation":[
				-1.2196481227874756,
				84.56876373291016,
				641.4577026367188
			]
		}
	],
	"materials":[
		{
			"doubleSided":true,
			"extensions":{
				"KHR_materials_unlit":{}
			},
			"name":"Material",
			"pbrMetallicRoughness":{
				"baseColorTexture":{
					"index":0
				},
				"metallicFactor":0,
				"roughnessFactor":0.9
			}
		}
	],
	"meshes":[
		{
			"name":"walkable_0",
			"primitives":[
				{
					"attributes":{
						"POSITION":0,
						"NORMAL":1
					},
					"indices":2
				}
			]
		},
		{
			"name":"corridor-tile",
			"primitives":[
				{
					"attributes":{
						"POSITION":3,
						"NORMAL":4,
						"TEXCOORD_0":5
					},
					"indices":6,
					"material":0
				}
			]
		}
	],
	"textures":[
		{
			"sampler":0,
			"source":0
		}
	],
	"images":[
		{
			"mimeType":"image/png",
			"name":"corridor.png",
			"uri":"corridor.png"
		}
	],
	"accessors":[
		{
			"bufferView":0,
			"componentType":5126,
			"count":28,
			"max":[
				63.99829864501953,
				10.907154083251953,
				1089.8570556640625
			],
			"min":[
				-66.88465118408203,
				-148.08763122558594,
				-192.11007690429688
			],
			"type":"VEC3"
		},
		{
			"bufferView":1,
			"componentType":5126,
			"count":28,
			"type":"VEC3"
		},
		{
			"bufferView":2,
			"componentType":5123,
			"count":84,
			"type":"SCALAR"
		},
		{
			"bufferView":3,
			"componentType":5126,
			"count":209,
			"max":[
				83.40164947509766,
				126.3679428100586,
				3.0517578125e-05
			],
			"min":[
				0,
				-11.660446166992188,
				-162.3063507080078
			],
			"type":"VEC3"
		},
		{
			"bufferView":4,
			"componentType":5126,
			"count":209,
			"type":"VEC3"
		},
		{
			"bufferView":5,
			"componentType":5126,
			"count":209,
			"type":"VEC2"
		},
		{
			"bufferView":6,
			"componentType":5123,
			"count":585,
			"type":"SCALAR"
		}
	],
	"bufferViews":[
		{
			"buffer":0,
			"byteLength":336,
			"byteOffset":0,
			"target":34962
		},
		{
			"buffer":0,
			"byteLength":336,
			"byteOffset":336,
			"target":34962
		},
		{
			"buffer":0,
			"byteLength":168,
			"byteOffset":672,
			"target":34963
		},
		{
			"buffer":0,
			"byteLength":2508,
			"byteOffset":840,
			"target":34962
		},
		{
			"buffer":0,
			"byteLength":2508,
			"byteOffset":3348,
			"target":34962
		},
		{
			"buffer":0,
			"byteLength":1672,
			"byteOffset":5856,
			"target":34962
		},
		{
			"buffer":0,
			"byteLength":1170,
			"byteOffset":7528,
			"target":34963
		}
	],
	"samplers":[
		{
			"magFilter":9728,
			"minFilter":9984
		}
	],
	"buffers":[
		{
			"byteLength":8700,
			"uri":"level.bin"
		}
	]
}
