{
	"asset":{
		"generator":"Khronos glTF Blender I/O v4.5.48",
		"version":"2.0"
	},
	"extensionsUsed":[
		"KHR_materials_unlit"
	],
	"scene":0,
	"scenes":[
		{
			"name":"Scene",
			"nodes":[
				0,
				1,
				2,
				3,
				4,
				5,
				6,
				7,
				8
			]
		}
	],
	"nodes":[
		{
			"mesh":0,
			"name":"walkable_0"
		},
		{
			"mesh":1,
			"name":"tile.000",
			"translation":[
				-1.2196481227874756,
				0.012050840072333813,
				292.94464111328125
			]
		},
		{
			"mesh":1,
			"name":"tile.003",
			"rotation":[
				0,
				0,
				-1,
				0
			],
			"scale":[
				-1,
				-1,
				-1
			],
			"translation":[
				-1.2196481227874756,
				0.012050840072333813,
				292.94464111328125
			]
		},
		{
			"mesh":1,
			"name":"tile.004",
			"rotation":[
				0,
				1,
				0,
				0
			],
			"translation":[
				-1.2196481227874756,
				0.012050840072333813,
				292.94464111328125
			]
		},
		{
			"mesh":1,
			"name":"tile.005",
			"rotation":[
				1,
				0,
				0,
				0
			],
			"scale":[
				-1,
				-1,
				-1
			],
			"translation":[
				-1.2196481227874756,
				0.012050840072333813,
				292.94464111328125
			]
		},
		{
			"mesh":1,
			"name":"tile.006",
			"rotation":[
				0,
				0,
				-1,
				0
			],
			"scale":[
				-1,
				-1,
				-1
			],
			"translation":[
				-1.2196481227874756,
				0.012050840072333813,
				-31.67279815673828
			]
		},
		{
			"mesh":1,
			"name":"tile.007",
			"rotation":[
				0,
				1,
				0,
				0
			],
			"translation":[
				-1.2196481227874756,
				0.012050840072333813,
				-31.67279815673828
			]
		},
		{
			"mesh":1,
			"name":"tile.001",
			"translation":[
				-1.2196481227874756,
				0.012050840072333813,
				-31.672821044921875
			]
		},
		{
			"mesh":1,
			"name":"tile.002",
			"rotation":[
				1,
				0,
				0,
				0
			],
			"scale":[
				-1,
				-1,
				-1
			],
			"translation":[
				-1.2196481227874756,
				0.012050840072333813,
				-31.672821044921875
			]
		}
	],
	"materials":[
		{
			"doubleSided":true,
			"extensions":{
				"KHR_materials_unlit":{}
			},
			"name":"Material",
			"pbrMetallicRoughness":{
				"baseColorTexture":{
					"index":0
				},
				"metallicFactor":0,
				"roughnessFactor":0.9
			}
		}
	],
	"meshes":[
		{
			"name":"walkable_0",
			"primitives":[
				{
					"attributes":{
						"POSITION":0,
						"NORMAL":1
					},
					"indices":2
				}
			]
		},
		{
			"name":"corridor-tile",
			"primitives":[
				{
					"attributes":{
						"POSITION":3,
						"NORMAL":4,
						"TEXCOORD_0":5
					},
					"indices":6,
					"material":0
				}
			]
		}
	],
	"textures":[
		{
			"sampler":0,
			"source":0
		}
	],
	"images":[
		{
			"mimeType":"image/png",
			"name":"corridor.png",
			"uri":"corridor.png"
		}
	],
	"accessors":[
		{
			"bufferView":0,
			"componentType":5126,
			"count":24,
			"max":[
				63.99829864501953,
				0.3169989585876465,
				455.6149597167969
			],
			"min":[
				-66.88465118408203,
				-5.860058784484863,
				-192.11007690429688
			],
			"type":"VEC3"
		},
		{
			"bufferView":1,
			"componentType":5126,
			"count":24,
			"type":"VEC3"
		},
		{
			"bufferView":2,
			"componentType":5123,
			"count":66,
			"type":"SCALAR"
		},
		{
			"bufferView":3,
			"componentType":5126,
			"count":216,
			"max":[
				83.40164947509766,
				126.5203628540039,
				3.0517578125e-05
			],
			"min":[
				0,
				-11.660446166992188,
				-162.3063507080078
			],
			"type":"VEC3"
		},
		{
			"bufferView":4,
			"componentType":5126,
			"count":216,
			"type":"VEC3"
		},
		{
			"bufferView":5,
			"componentType":5126,
			"count":216,
			"type":"VEC2"
		},
		{
			"bufferView":6,
			"componentType":5123,
			"count":615,
			"type":"SCALAR"
		}
	],
	"bufferViews":[
		{
			"buffer":0,
			"byteLength":288,
			"byteOffset":0,
			"target":34962
		},
		{
			"buffer":0,
			"byteLength":288,
			"byteOffset":288,
			"target":34962
		},
		{
			"buffer":0,
			"byteLength":132,
			"byteOffset":576,
			"target":34963
		},
		{
			"buffer":0,
			"byteLength":2592,
			"byteOffset":708,
			"target":34962
		},
		{
			"buffer":0,
			"byteLength":2592,
			"byteOffset":3300,
			"target":34962
		},
		{
			"buffer":0,
			"byteLength":1728,
			"byteOffset":5892,
			"target":34962
		},
		{
			"buffer":0,
			"byteLength":1230,
			"byteOffset":7620,
			"target":34963
		}
	],
	"samplers":[
		{
			"magFilter":9729,
			"minFilter":9987
		}
	],
	"buffers":[
		{
			"byteLength":8852,
			"uri":"level.bin"
		}
	]
}
